<svg width="648" height="771" viewBox="0 0 648 771" fill="none" xmlns="http://www.w3.org/2000/svg">
<path opacity="0.04" fill-rule="evenodd" clip-rule="evenodd" d="M-169 191.01L-169 -148.743L70.2896 -389L408.699 -389L648 -148.743L648 21.1243L648 191.001L563.389 106.059L478.778 191.01L563.398 275.936L648 191.001L648 360.873L648 530.75L408.699 771L70.2897 771L-169 530.75L-169 360.873L-169 191.01ZM70.2896 -219.126L408.699 -219.126L648 21.1243L563.389 106.059L408.708 -49.235L70.3035 -49.235L-84.389 106.059L-168.995 21.1244L70.2896 -219.126ZM0.224315 191.001L70.3035 120.632L408.708 120.632L478.778 191.01L408.708 261.36L70.3035 261.361L0.224315 191.001ZM-84.3797 275.936L70.3035 431.242L408.708 431.242L563.398 275.936L648 360.873L408.699 601.121L70.2897 601.121L-169 360.873L-84.3797 275.936ZM-169 191.01L-84.3797 275.936L0.224315 191.001L-84.389 106.059L-169 191.01Z" fill="white"/>
</svg>
