<svg width="390" height="608" viewBox="0 0 390 608" fill="none" xmlns="http://www.w3.org/2000/svg">
<path opacity="0.05" fill-rule="evenodd" clip-rule="evenodd" d="M579 196.993V437.749L409.418 608H169.59L0 437.749L0 317.377L0 196.999L59.963 257.191L119.926 196.993L59.9564 136.813L0 196.999L0 76.6243L0 -43.7539L169.59 -214L409.418 -214L579 -43.7539V76.6243V196.993ZM409.418 487.624H169.59L0 317.377L59.963 257.191L169.584 367.235H409.408L519.037 257.191L578.997 317.377L409.418 487.624ZM459.072 196.999L409.408 246.864H169.584L119.926 196.993L169.584 147.141H409.408L459.072 196.999ZM519.03 136.813L409.408 26.7596L169.584 26.7596L59.9564 136.813L0 76.6243L169.59 -93.6202L409.418 -93.6202L579 76.6243L519.03 136.813ZM579 196.993L519.03 136.813L459.072 196.999L519.037 257.191L579 196.993Z" fill="white"/>
</svg>
