<svg width="247" height="240" viewBox="0 0 247 240" fill="none" xmlns="http://www.w3.org/2000/svg">
<g clip-path="url(#clip0_926_13193)">
<path d="M110.902 109.712C109.824 109.712 109.277 109.098 109.277 108.031V103.908C109.277 102.842 109.824 102.227 110.902 102.227C111.949 102.227 112.511 102.787 112.511 103.8H115.214C115.214 102.407 114.823 101.323 114.027 100.546C113.245 99.7678 112.23 99.3702 110.964 99.3702C108.168 99.3702 106.589 100.979 106.589 103.854V108.175C106.589 110.906 108.121 112.569 110.636 112.569C111.699 112.569 112.745 112.062 113.26 111.285L113.792 112.298H115.214V105.264H110.886V107.832H112.605V108.754C112.12 109.387 111.542 109.712 110.902 109.712L110.902 109.712ZM77.2812 138.267H90.4062L99.6867 127.525L96.4053 123.728L90.4056 130.671H77.2808L71.2816 123.728L68 127.525L77.2812 138.267ZM74.5632 119.93L77.2808 123.076H90.4056L93.1236 119.93L90.4056 116.784H77.2808L74.5632 119.93V119.93ZM96.4053 123.728L99.6869 119.93L96.4049 116.133L93.1236 119.93L96.4053 123.728ZM71.2816 123.728L74.5632 119.93L71.2812 116.133L68 119.93L71.2816 123.728V123.728ZM68 112.335L71.2812 116.133L77.2808 109.189H90.4056L96.4055 116.133L99.6869 112.335L90.4062 101.594H77.2812L68 112.335V112.335ZM77.2812 93.999H90.4062L99.6869 104.74V135.12L90.4062 145.861H77.2812L68 135.12V104.74L77.2812 93.999ZM175.8 142.905V132.96H178.722V130.248H170.176V132.96H173.113V142.905H175.8H175.8ZM163.323 142.905V136.052L166.916 142.905H169.369V130.248H166.76V137.1L163.182 130.248H160.714V142.905H163.323V142.905ZM159.721 142.905V140.193H155.065V137.842H158.971V135.275H155.065V132.96H159.689V130.248H152.378V142.905H159.721H159.721ZM145.639 142.905V137.932H146.654L149.092 142.905H151.638V141.892L148.81 136.395L151.404 131.279V130.248H149.029L146.607 135.22H145.639V130.248H142.952V142.905H145.639V142.905ZM135.709 142.905V137.932H138.99V142.905H141.677V130.248H138.99V135.22H135.709V130.248H133.022V142.905H135.709V142.905ZM128.022 143.176C130.85 143.176 132.318 141.603 132.318 139.162C132.318 138.095 132.068 137.335 131.505 136.811C130.959 136.251 130.412 135.943 129.427 135.564L127.693 134.877C126.865 134.533 126.584 134.371 126.584 133.81C126.584 133.177 127.069 132.834 127.896 132.834C128.834 132.834 129.506 133.358 129.506 134.316H132.208C132.208 132.906 131.818 131.839 131.052 131.098C130.287 130.357 129.287 129.977 128.022 129.977C126.725 129.977 125.709 130.338 124.959 131.062C124.225 131.785 123.85 132.762 123.85 133.973C123.85 135.654 124.647 136.793 126.225 137.426L128.006 138.113C129.209 138.565 129.615 138.8 129.615 139.325C129.615 139.994 129.146 140.319 128.224 140.319C127.709 140.319 127.24 140.211 126.849 139.994C126.459 139.759 126.256 139.361 126.256 138.8H123.569C123.569 140.193 123.991 141.277 124.819 142.037C125.663 142.796 126.725 143.176 128.022 143.176L128.022 143.176ZM123.625 142.905V141.892L119.985 130.248H117.345L113.72 141.892V142.905H116.095L116.876 140.174H120.344L121.11 142.905H123.625ZM119.594 137.571H117.626L118.625 134.117L119.594 137.571V137.571ZM112.253 142.905V132.96H115.174V130.248H106.628V132.96H109.565V142.905H112.253H112.253ZM137.415 117.516H138.774C139.899 117.516 140.524 118.239 140.524 119.053V123.211C140.524 124.006 139.899 124.748 138.774 124.748H137.415V117.516ZM138.774 127.46C141.571 127.46 143.211 125.905 143.211 123.138V119.125C143.211 116.376 141.54 114.803 138.774 114.803H134.728V127.46H138.774V127.46ZM134.393 127.46V126.448L130.753 114.803H128.114L124.489 126.448V127.46H126.863L127.645 124.73H131.113L131.878 127.46H134.393V127.46ZM130.363 122.126H128.394L129.394 118.672L130.363 122.126ZM121.855 123.265C121.855 124.115 121.276 124.874 120.105 124.874C118.933 124.874 118.355 124.115 118.355 123.265V118.98C118.355 118.166 118.933 117.389 120.105 117.389C121.276 117.389 121.855 118.166 121.855 118.98V123.265ZM120.105 127.731C121.464 127.731 122.542 127.333 123.339 126.519C124.135 125.706 124.541 124.585 124.541 123.157V119.143C124.541 117.696 124.135 116.575 123.339 115.761C122.542 114.948 121.464 114.532 120.105 114.532C118.746 114.532 117.652 114.948 116.855 115.761C116.058 116.575 115.668 117.696 115.668 119.143V123.157C115.668 124.585 116.074 125.706 116.871 126.519C117.667 127.333 118.746 127.731 120.105 127.731ZM109.253 127.46V122.831H110.378L112.628 127.46H115.237V126.448L113.221 122.487C114.331 121.71 114.893 120.499 114.893 118.817C114.893 116.268 113.675 114.803 111.362 114.803H106.566V127.46H109.253V127.46ZM109.253 117.516H110.909C111.769 117.516 112.175 117.858 112.175 118.871C112.175 119.902 111.769 120.263 110.909 120.263H109.253V117.516ZM149.479 102.353H150.838C151.963 102.353 152.588 103.076 152.588 103.89V108.049C152.588 108.844 151.963 109.586 150.838 109.586H149.479V102.353V102.353ZM150.838 112.298C153.635 112.298 155.275 110.743 155.275 107.976V103.962C155.275 101.214 153.603 99.6411 150.838 99.6411H146.792V112.298H150.838V112.298ZM139.068 112.298V105.445L142.661 112.298H145.114V99.641H142.505V106.494L138.927 99.641H136.459V112.298H139.068ZM135.778 112.298V111.285L132.138 99.641H129.498L125.873 111.285V112.298H128.248L129.029 109.567H132.497L133.262 112.298H135.778V112.298ZM131.747 106.964H129.779L130.778 103.51L131.747 106.964ZM119.238 112.298V107.669H120.363L122.613 112.298H125.222V111.285L123.206 107.326C124.316 106.548 124.878 105.337 124.878 103.655C124.878 101.105 123.66 99.6411 121.347 99.6411H116.551V112.298H119.238V112.298ZM119.238 102.353H120.894C121.754 102.353 122.16 102.697 122.16 103.709C122.16 104.74 121.754 105.101 120.894 105.101H119.238V102.353V102.353Z" fill="white"/>
</g>
<path d="M73.7187 232.064L77.7176 222.345L79.5225 223.088L77.8087 227.253L82.8346 229.321L84.5485 225.156L86.3533 225.899L82.3544 235.617L80.5495 234.875L82.2005 230.862L77.1746 228.794L75.5236 232.807L73.7187 232.064Z" fill="#8A8A8A"/>
<path d="M63.6591 224.041C62.6432 223.438 62.0138 222.734 61.771 221.926C61.5144 221.123 61.6771 220.23 62.259 219.249L64.6554 215.206L66.1793 216.11L65.6816 216.949C66.0583 216.765 66.4802 216.701 66.9474 216.757C67.4009 216.817 67.8859 217 68.4025 217.306C68.919 217.612 69.32 217.966 69.6053 218.368C69.8855 218.778 70.0414 219.203 70.0729 219.64C70.0907 220.081 69.9821 220.5 69.7474 220.896C69.3799 221.516 68.8582 221.875 68.1824 221.975C67.4929 222.078 66.6531 221.836 65.6631 221.249L63.8809 220.193L63.8197 220.296C63.5338 220.778 63.4607 221.235 63.6003 221.667C63.7313 222.094 64.0809 222.476 64.6491 222.812C65.0365 223.042 65.4554 223.209 65.9057 223.313C66.3473 223.412 66.7611 223.43 67.147 223.368L67.083 224.919C66.5581 224.98 65.9983 224.933 65.4036 224.778C64.8088 224.623 64.2274 224.377 63.6591 224.041ZM67.37 218.282C66.9653 218.042 66.5544 217.921 66.1373 217.918C65.7065 217.918 65.3244 218.052 64.9911 218.32L64.5164 219.121L66.1823 220.109C67.1121 220.66 67.7582 220.63 68.1206 220.019C68.2942 219.726 68.3158 219.424 68.1854 219.114C68.055 218.804 67.7832 218.527 67.37 218.282Z" fill="#8A8A8A"/>
<path d="M44.4526 209.947L49.5496 203.759L58.6696 211.271L53.5726 217.459L52.1241 216.266L56.2093 211.306L53.8105 209.33L49.7253 214.29L48.2767 213.097L52.362 208.137L49.9864 206.18L45.9011 211.14L44.4526 209.947Z" fill="#8A8A8A"/>
<path d="M37.8751 203.41L36.6392 201.997L40.6161 198.517L33.7226 198.665L32.5955 197.377L38.6286 192.097L39.8645 193.509L35.8876 196.989L42.7712 196.831L43.9082 198.13L37.8751 203.41Z" fill="#8A8A8A"/>
<path d="M17.9296 174.496L25.0273 170.768L25.8929 172.416L20.2041 175.404L22.0399 178.9L27.7288 175.912L28.6013 177.573L21.5036 181.301L17.9296 174.496Z" fill="#8A8A8A"/>
<path d="M13.1152 163.281C12.7127 162.171 12.6738 161.227 12.9986 160.449C13.3106 159.665 14.0029 159.079 15.0756 158.69L19.4933 157.088L20.0972 158.754L19.1797 159.086C19.5875 159.183 19.9542 159.402 20.2796 159.741C20.5923 160.075 20.851 160.524 21.0557 161.089C21.2604 161.654 21.3454 162.182 21.3107 162.673C21.2666 163.168 21.1179 163.595 20.8644 163.953C20.5982 164.305 20.2486 164.56 19.8158 164.716C19.1383 164.962 18.5069 164.909 17.9214 164.557C17.3232 164.199 16.8279 163.479 16.4356 162.397L15.7294 160.449L15.6165 160.49C15.0896 160.681 14.7429 160.988 14.5767 161.41C14.407 161.823 14.4347 162.34 14.6599 162.961C14.8134 163.384 15.0311 163.779 15.3129 164.145C15.5913 164.502 15.8993 164.779 16.2369 164.976L15.2033 166.133C14.7589 165.847 14.3561 165.456 13.9948 164.959C13.6336 164.461 13.3404 163.902 13.1152 163.281ZM19.6382 161.188C19.4779 160.745 19.2375 160.391 18.9171 160.124C18.5839 159.851 18.2035 159.712 17.7759 159.707L16.9009 160.024L17.561 161.845C17.9294 162.861 18.4477 163.248 19.1158 163.006C19.4357 162.89 19.6437 162.671 19.7398 162.349C19.8358 162.026 19.802 161.639 19.6382 161.188Z" fill="#8A8A8A"/>
<path d="M8.59518 147.565C8.43085 146.802 8.45077 146.086 8.65493 145.418C8.85698 144.739 9.22446 144.164 9.75737 143.691C10.2903 143.218 10.953 142.896 11.7455 142.725C12.5381 142.554 13.2794 142.574 13.9696 142.784C14.65 142.996 15.2218 143.369 15.6851 143.904C16.1463 144.429 16.459 145.073 16.6234 145.837C16.8509 146.893 16.6788 147.806 16.107 148.574L19.9083 147.755L20.3033 149.59L9.61864 151.891L9.24259 150.144L10.27 149.923C9.83284 149.7 9.47392 149.388 9.19321 148.988C8.9104 148.577 8.71105 148.103 8.59518 147.565ZM15.0972 146.38C14.9518 145.705 14.6078 145.201 14.065 144.867C13.5201 144.524 12.8807 144.431 12.1469 144.589C11.413 144.747 10.8685 145.095 10.5132 145.632C10.1558 146.159 10.0498 146.761 10.1952 147.436C10.29 147.876 10.478 148.25 10.7593 148.558C11.0309 148.868 11.3747 149.086 11.7907 149.211C12.2068 149.337 12.6594 149.347 13.1486 149.242C13.6379 149.136 14.0463 148.941 14.3738 148.655C14.7014 148.37 14.93 148.029 15.0596 147.632C15.1795 147.238 15.192 146.821 15.0972 146.38Z" fill="#8A8A8A"/>
<path d="M7.77864 128.826L8.00538 131.624L14.41 131.105L14.5616 132.976L8.15695 133.495L8.3849 136.308L6.7987 136.436L6.19245 128.954L7.77864 128.826Z" fill="#8A8A8A"/>
<path d="M6.0389 121.432L6.13339 119.558L9.38711 119.722L9.59047 115.689L6.33675 115.525L6.43125 113.65L14.4381 114.054L14.3436 115.928L11.1798 115.769L10.9765 119.802L14.1402 119.962L14.0457 121.836L6.0389 121.432Z" fill="#8A8A8A"/>
<path d="M12.9185 97.9718C13.0462 97.9965 13.2262 98.0414 13.4582 98.1066L12.2662 104.283C12.8669 104.287 13.3828 104.096 13.814 103.71C14.2373 103.313 14.5143 102.775 14.6452 102.097C14.8121 101.232 14.6646 100.465 14.2028 99.7946L15.5284 99.026C15.8827 99.4613 16.1158 99.9701 16.2277 100.552C16.3396 101.135 16.3301 101.765 16.1992 102.443C16.0323 103.308 15.7134 104.036 15.2423 104.628C14.7713 105.22 14.196 105.639 13.5166 105.885C12.8292 106.12 12.0973 106.162 11.3209 106.012C10.5544 105.864 9.89964 105.559 9.35673 105.098C8.80588 104.624 8.41822 104.045 8.19375 103.36C7.96928 102.674 7.93196 101.943 8.0818 101.167C8.22974 100.4 8.53354 99.7504 8.99319 99.2173C9.44492 98.6725 10.0126 98.2927 10.6962 98.0781C11.3719 97.8517 12.1126 97.8163 12.9185 97.9718ZM9.55591 101.451C9.44211 102.041 9.52228 102.576 9.7964 103.057C10.0626 103.527 10.4771 103.861 11.0398 104.062L11.9018 99.5951C11.3167 99.5638 10.8083 99.7154 10.3768 100.05C9.94523 100.385 9.67161 100.852 9.55591 101.451ZM6.6475 102.419C6.59818 102.674 6.47387 102.87 6.27456 103.004C6.07525 103.139 5.84784 103.182 5.59233 103.133C5.32699 103.081 5.12691 102.956 4.99209 102.757C4.85726 102.558 4.81451 102.33 4.86382 102.075C4.91314 101.819 5.03745 101.624 5.23675 101.489C5.43606 101.354 5.66839 101.313 5.93373 101.364C6.18924 101.413 6.38441 101.537 6.51923 101.737C6.65405 101.936 6.69681 102.163 6.6475 102.419ZM7.19942 99.5591C7.15011 99.8146 7.0258 100.01 6.82649 100.145C6.62718 100.279 6.39977 100.322 6.14426 100.273C5.87892 100.222 5.67884 100.096 5.54401 99.8971C5.40919 99.6978 5.36644 99.4704 5.41575 99.2149C5.46506 98.9594 5.58937 98.7642 5.78868 98.6294C5.98799 98.4946 6.22031 98.4528 6.48565 98.504C6.74117 98.5533 6.93633 98.6776 7.07116 98.8769C7.20598 99.0762 7.24873 99.3036 7.19942 99.5591Z" fill="#8A8A8A"/>
<path d="M12.4386 84.8201C12.6922 84.0817 13.0792 83.4792 13.5994 83.0123C14.1228 82.536 14.7349 82.233 15.4356 82.1034C16.1363 81.9737 16.87 82.0406 17.6367 82.304C18.4034 82.5674 19.0281 82.9672 19.5106 83.5034C19.9836 84.0363 20.2803 84.6515 20.4005 85.3489C20.5239 86.0369 20.4588 86.7501 20.2052 87.4884C19.8539 88.5107 19.2351 89.2029 18.3487 89.5651L22.0261 90.8285L21.4164 92.6034L11.0798 89.0521L11.6603 87.3625L12.6542 87.7039C12.3953 87.2869 12.2491 86.8346 12.2156 86.3468C12.1854 85.8496 12.2597 85.3407 12.4386 84.8201ZM18.6176 87.1652C18.842 86.5121 18.808 85.9025 18.5157 85.3364C18.2266 84.7608 17.7271 84.3511 17.0172 84.1072C16.3073 83.8633 15.6614 83.8795 15.0797 84.1559C14.5012 84.4228 14.0997 84.8828 13.8753 85.5359C13.729 85.9619 13.6966 86.3794 13.7784 86.7885C13.8506 87.1943 14.0324 87.5583 14.3238 87.8807C14.6152 88.2031 14.9976 88.4455 15.4708 88.6081C15.9441 88.7707 16.3948 88.8144 16.8228 88.7392C17.2507 88.664 17.6227 88.4902 17.9385 88.2177C18.2449 87.942 18.4713 87.5912 18.6176 87.1652Z" fill="#8A8A8A"/>
<path d="M21.3116 70.9325C21.7874 70.0292 22.3549 69.4458 23.0141 69.1821C23.6733 68.9185 24.3749 68.9826 25.1187 69.3744C25.898 69.7848 26.3603 70.3676 26.5055 71.1229C26.6554 71.8692 26.4717 72.7227 25.9544 73.6833L24.248 76.8908L17.1547 73.1548L18.0293 71.4944L20.3539 72.7187L21.3116 70.9325ZM20.9258 65.9951L21.8003 64.3347L28.8936 68.0707L28.019 69.7312L20.9258 65.9951ZM24.6554 73.1857C24.9208 72.7033 25.0148 72.2778 24.9376 71.909C24.8603 71.5403 24.618 71.2486 24.2106 71.0341C23.8121 70.8242 23.4546 70.7942 23.138 70.9442C22.8215 71.0942 22.5258 71.4193 22.2511 71.9194L21.4962 73.3204L23.9005 74.5868L24.6554 73.1857Z" fill="#8A8A8A"/>
<path d="M37.6454 39.4199L45.4189 46.492L44.1055 47.9357L40.774 44.9047L37.1167 48.9248L40.4482 51.9557L39.1348 53.3994L31.3613 46.3272L32.6747 44.8836L35.884 47.8033L39.5413 43.7833L36.332 40.8635L37.6454 39.4199Z" fill="#8A8A8A"/>
<path d="M48.6137 32.6996C49.5262 31.9498 50.4032 31.5983 51.2449 31.6452C52.0879 31.6779 52.8716 32.1351 53.5959 33.0167L56.5791 36.6474L55.2104 37.772L54.5909 37.018C54.6354 37.4348 54.5518 37.8533 54.34 38.2735C54.1295 38.6795 53.7923 39.0732 53.3283 39.4544C52.8644 39.8357 52.3948 40.0919 51.9198 40.2232C51.4383 40.3467 50.9866 40.3487 50.5645 40.2292C50.1438 40.0956 49.7873 39.8509 49.495 39.4952C49.0375 38.9384 48.8771 38.3253 49.0137 37.656C49.1518 36.9727 49.6654 36.2656 50.5547 35.5349L52.1555 34.2196L52.0793 34.1268C51.7234 33.6938 51.3187 33.4693 50.8652 33.4533C50.4194 33.431 49.9413 33.6295 49.4309 34.0489C49.0829 34.3348 48.7832 34.6717 48.5319 35.0596C48.2884 35.441 48.13 35.8238 48.0569 36.2077L46.6212 35.6192C46.7426 35.1048 46.9775 34.5945 47.3257 34.0881C47.674 33.5818 48.1033 33.1189 48.6137 32.6996ZM52.7626 38.1511C53.1261 37.8524 53.3803 37.5075 53.5252 37.1164C53.6716 36.7112 53.6757 36.3062 53.5375 35.9016L52.9466 35.1824L51.4502 36.4119C50.615 37.0981 50.423 37.7158 50.8741 38.2648C51.0902 38.5278 51.3661 38.6508 51.702 38.6339C52.0379 38.617 52.3914 38.4561 52.7626 38.1511Z" fill="#8A8A8A"/>
<path d="M68.4106 19.4471L72.4908 26.3482L62.3201 32.3615L58.2399 25.4605L59.8553 24.5054L63.1256 30.0365L65.8008 28.4549L62.5305 22.9237L64.1459 21.9686L67.4162 27.4998L70.0654 25.9334L66.7952 20.4022L68.4106 19.4471Z" fill="#8A8A8A"/>
<path d="M76.7978 15.4896L78.5468 14.8092L80.463 19.7341L82.6742 13.2033L84.2692 12.5827L87.1762 20.0541L85.4273 20.7346L83.5111 15.8096L81.3138 22.335L79.7048 22.9611L76.7978 15.4896Z" fill="#8A8A8A"/>
<path d="M110.781 6.59394L111.866 14.5372L110.021 14.7891L109.152 8.42263L105.239 8.957L106.109 15.3235L104.25 15.5775L103.165 7.63422L110.781 6.59394Z" fill="#8A8A8A"/>
<path d="M122.964 5.89291C124.145 5.89291 125.045 6.17816 125.666 6.74866C126.296 7.30915 126.612 8.15989 126.612 9.30089V14H124.84V13.0241C124.61 13.3745 124.28 13.6447 123.849 13.8349C123.429 14.015 122.919 14.1051 122.318 14.1051C121.717 14.1051 121.192 14.005 120.742 13.8048C120.291 13.5946 119.941 13.3094 119.691 12.9491C119.45 12.5788 119.33 12.1634 119.33 11.703C119.33 10.9824 119.596 10.4069 120.126 9.97648C120.667 9.5361 121.512 9.3159 122.663 9.3159L124.735 9.3159V9.1958C124.735 8.63531 124.565 8.20493 124.225 7.90467C123.894 7.60441 123.399 7.45427 122.738 7.45427C122.288 7.45427 121.843 7.52433 121.402 7.66446C120.972 7.80458 120.606 7.99975 120.306 8.24997L119.571 6.88377C119.991 6.56349 120.496 6.31828 121.087 6.14813C121.677 5.97798 122.303 5.89291 122.964 5.89291ZM122.708 12.7389C123.179 12.7389 123.594 12.6338 123.954 12.4236C124.325 12.2034 124.585 11.8932 124.735 11.4928V10.562L122.798 10.562C121.717 10.562 121.177 10.9173 121.177 11.6279C121.177 11.9682 121.312 12.2385 121.582 12.4386C121.853 12.6388 122.228 12.7389 122.708 12.7389Z" fill="#8A8A8A"/>
<path d="M139.281 6.99847C140.054 7.10413 140.72 7.36685 141.279 7.78665C141.848 8.20779 142.264 8.74949 142.527 9.41173C142.79 10.074 142.867 10.8067 142.757 11.61C142.647 12.4132 142.376 13.1035 141.944 13.6809C141.513 14.2483 140.967 14.6586 140.306 14.9118C139.655 15.1663 138.943 15.2408 138.169 15.1351C137.098 14.9888 136.299 14.516 135.772 13.7167L135.246 17.5693L133.386 17.3153L134.866 6.48631L136.636 6.72809L136.493 7.76935C136.852 7.4345 137.268 7.20335 137.74 7.07589C138.222 6.94978 138.735 6.92397 139.281 6.99847ZM138.179 13.515C138.863 13.6085 139.454 13.4569 139.953 13.0604C140.461 12.6652 140.766 12.0957 140.868 11.3519C140.97 10.6082 140.828 9.97775 140.445 9.46062C140.071 8.94486 139.541 8.64024 138.857 8.54678C138.411 8.48583 137.995 8.53509 137.61 8.69458C137.226 8.84415 136.904 9.09313 136.644 9.44152C136.384 9.7899 136.22 10.212 136.153 10.7078C136.085 11.2037 136.13 11.6542 136.286 12.0595C136.443 12.4648 136.686 12.7959 137.014 13.053C137.344 13.3001 137.732 13.4541 138.179 13.515Z" fill="#8A8A8A"/>
<path d="M157.176 12.6198L154.468 11.8791L152.773 18.0771L150.962 17.582L152.658 11.384L149.935 10.6394L150.355 9.10441L157.596 11.0848L157.176 12.6198Z" fill="#8A8A8A"/>
<path d="M164.721 13.5019L166.451 14.2296L165.188 17.2326L168.91 18.7986L170.174 15.7956L171.904 16.5233L168.795 23.9131L167.065 23.1854L168.293 20.2655L164.571 18.6995L163.342 21.6194L161.613 20.8917L164.721 13.5019Z" fill="#8A8A8A"/>
<path d="M184.431 27.9681C184.364 28.0798 184.26 28.2336 184.12 28.4295L178.72 25.2036C178.511 25.767 178.515 26.3171 178.731 26.8539C178.96 27.3873 179.371 27.8311 179.964 28.1853C180.72 28.637 181.492 28.7599 182.279 28.5541L182.55 30.0624C182.02 30.2471 181.462 30.2928 180.877 30.1995C180.291 30.1063 179.702 29.8825 179.109 29.5284C178.353 29.0767 177.777 28.5285 177.381 27.8839C176.985 27.2393 176.787 26.5556 176.787 25.833C176.801 25.1069 177.011 24.4044 177.417 23.7256C177.817 23.0554 178.327 22.5438 178.946 22.1907C179.578 21.8341 180.255 21.6672 180.976 21.6898C181.697 21.7125 182.397 21.9265 183.076 22.332C183.746 22.7324 184.253 23.2395 184.598 23.8533C184.956 24.4637 185.119 25.1268 185.088 25.8426C185.071 26.555 184.852 27.2635 184.431 27.9681ZM182.306 23.6209C181.79 23.3129 181.26 23.2058 180.714 23.2995C180.182 23.3898 179.726 23.6654 179.346 24.1261L183.251 26.459C183.48 25.9196 183.511 25.39 183.343 24.8702C183.176 24.3504 182.83 23.934 182.306 23.6209ZM182.387 20.5568C182.164 20.4233 182.023 20.2399 181.964 20.0066C181.905 19.7733 181.943 19.5449 182.076 19.3215C182.215 19.0895 182.401 18.9441 182.634 18.8853C182.867 18.8265 183.096 18.8638 183.319 18.9973C183.542 19.1307 183.684 19.3141 183.742 19.5474C183.801 19.7808 183.761 20.0134 183.623 20.2454C183.489 20.4688 183.306 20.6099 183.072 20.6687C182.839 20.7276 182.611 20.6902 182.387 20.5568ZM184.888 22.0504C184.664 21.917 184.523 21.7336 184.464 21.5003C184.406 21.2669 184.443 21.0386 184.576 20.8152C184.715 20.5832 184.901 20.4378 185.134 20.379C185.368 20.3201 185.596 20.3575 185.819 20.4909C186.043 20.6244 186.184 20.8078 186.243 21.0411C186.302 21.2744 186.262 21.5071 186.123 21.7391C185.99 21.9625 185.806 22.1036 185.573 22.1624C185.34 22.2212 185.111 22.1839 184.888 22.0504Z" fill="#8A8A8A"/>
<path d="M196.96 31.9996C197.567 32.4897 198.002 33.0589 198.263 33.707C198.533 34.3615 198.609 35.0402 198.492 35.7431C198.375 36.4461 198.062 37.113 197.553 37.7441C197.044 38.3751 196.455 38.826 195.787 39.0969C195.125 39.3599 194.445 39.4291 193.748 39.3044C193.06 39.186 192.411 38.8817 191.804 38.3915C190.962 37.7129 190.522 36.8952 190.484 35.9384L188.043 38.9649L186.582 37.7867L193.444 29.2797L194.835 30.4013L194.175 31.2193C194.655 31.1181 195.13 31.1348 195.6 31.2696C196.078 31.4106 196.531 31.654 196.96 31.9996ZM192.649 37.0092C193.186 37.4428 193.771 37.6187 194.403 37.5368C195.042 37.4612 195.598 37.1313 196.069 36.547C196.54 35.9627 196.745 35.35 196.684 34.7089C196.63 34.0741 196.334 33.5398 195.797 33.1063C195.446 32.8235 195.065 32.6508 194.652 32.5882C194.246 32.5178 193.842 32.5646 193.44 32.7287C193.037 32.8928 192.679 33.1696 192.365 33.5591C192.051 33.9486 191.856 34.3573 191.781 34.7853C191.705 35.2133 191.742 35.6222 191.891 36.012C192.045 36.3941 192.298 36.7265 192.649 37.0092Z" fill="#8A8A8A"/>
<path d="M206.99 45.0757C207.677 45.8308 208.032 46.5632 208.055 47.2728C208.078 47.9824 207.779 48.6201 207.157 49.1859C206.506 49.7786 205.8 50.0145 205.041 49.8936C204.288 49.7801 203.548 49.3165 202.821 48.5028L200.388 45.8052L206.318 40.4102L207.581 41.7984L205.637 43.5664L206.99 45.0757ZM211.763 46.3959L213.026 47.784L207.096 53.179L205.833 51.7909L211.763 46.3959ZM203.732 47.4511C204.095 47.8651 204.463 48.0986 204.836 48.1516C205.209 48.2047 205.566 48.0763 205.906 47.7664C206.239 47.4633 206.389 47.1374 206.356 46.7887C206.323 46.44 206.118 46.0512 205.742 45.6225L204.682 44.4353L202.672 46.2639L203.732 47.4511Z" fill="#8A8A8A"/>
<path d="M231.046 71.1712L221.748 76.0686L220.839 74.3418L224.824 72.2429L222.291 67.4344L218.306 69.5333L217.396 67.8064L226.695 62.909L227.604 64.6358L223.765 66.6578L226.298 71.4663L230.137 69.4444L231.046 71.1712Z" fill="#8A8A8A"/>
<path d="M233.627 83.7753C234.021 84.8887 234.052 85.8331 233.721 86.6084C233.403 87.3897 232.706 87.9706 231.63 88.3511L227.2 89.9181L226.61 88.248L227.53 87.9226C227.123 87.8224 226.758 87.6011 226.435 87.2588C226.125 86.9225 225.87 86.4713 225.669 85.9052C225.469 85.339 225.388 84.8103 225.427 84.3189C225.475 83.8242 225.627 83.3988 225.883 83.0428C226.152 82.6928 226.504 82.4411 226.938 82.2876C227.617 82.0473 228.248 82.1054 228.831 82.462C229.426 82.8247 229.916 83.5486 230.3 84.6337L230.991 86.5869L231.104 86.5469C231.632 86.36 231.981 86.056 232.151 85.6351C232.324 85.2236 232.3 84.7064 232.08 84.0837C231.93 83.6591 231.715 83.2625 231.436 82.8941C231.16 82.5351 230.855 82.2557 230.519 82.0561L231.561 80.907C232.003 81.1965 232.403 81.5912 232.76 82.0912C233.118 82.5912 233.407 83.1525 233.627 83.7753ZM227.088 85.8176C227.244 86.2611 227.482 86.6176 227.8 86.8872C228.131 87.1629 228.511 87.3048 228.938 87.3128L229.816 87.0024L229.17 85.1766C228.809 84.1575 228.294 83.7665 227.624 84.0034C227.303 84.1169 227.094 84.3344 226.995 84.6559C226.897 84.9775 226.927 85.3647 227.088 85.8176Z" fill="#8A8A8A"/>
<path d="M239.337 106.904L231.459 108.388L229.272 96.7764L237.151 95.2928L237.498 97.137L231.183 98.3261L231.758 101.38L238.073 100.191L238.42 102.035L232.106 103.224L232.675 106.249L238.99 105.06L239.337 106.904Z" fill="#8A8A8A"/>
<path d="M240.196 116.138L240.24 118.014L234.957 118.137L240.343 122.442L240.383 124.153L232.368 124.339L232.324 122.463L237.607 122.34L232.222 118.05L232.181 116.324L240.196 116.138Z" fill="#8A8A8A"/>
<path d="M236.979 151.118L229.141 149.43L229.533 147.61L235.815 148.963L236.646 145.103L230.364 143.75L230.759 141.916L238.597 143.603L236.979 151.118Z" fill="#8A8A8A"/>
<path d="M233.484 162.809C233.082 163.919 232.507 164.669 231.759 165.058C231.017 165.459 230.11 165.466 229.037 165.077L224.619 163.475L225.223 161.81L226.141 162.142C225.89 161.807 225.748 161.404 225.716 160.935C225.69 160.478 225.779 159.967 225.984 159.403C226.189 158.838 226.462 158.378 226.804 158.023C227.155 157.671 227.542 157.439 227.966 157.327C228.396 157.227 228.828 157.256 229.261 157.413C229.938 157.658 230.389 158.104 230.613 158.749C230.842 159.408 230.761 160.278 230.369 161.36L229.663 163.308L229.775 163.349C230.302 163.54 230.765 163.526 231.163 163.309C231.558 163.101 231.868 162.686 232.093 162.065C232.247 161.642 232.333 161.199 232.351 160.737C232.366 160.285 232.307 159.875 232.174 159.507L233.709 159.281C233.867 159.786 233.925 160.344 233.884 160.958C233.843 161.571 233.71 162.188 233.484 162.809ZM227.135 160.235C226.975 160.678 226.932 161.104 227.007 161.514C227.088 161.938 227.291 162.288 227.616 162.566L228.491 162.883L229.151 161.062C229.52 160.046 229.37 159.417 228.702 159.174C228.382 159.058 228.082 159.093 227.802 159.279C227.521 159.465 227.299 159.784 227.135 160.235Z" fill="#8A8A8A"/>
<path d="M226.884 177.771C226.521 178.462 226.047 178.999 225.462 179.381C224.872 179.772 224.221 179.979 223.509 180C222.797 180.022 222.082 179.844 221.364 179.467C220.646 179.09 220.09 178.6 219.694 177.997C219.308 177.398 219.108 176.745 219.095 176.037C219.078 175.339 219.251 174.644 219.614 173.953C220.116 172.996 220.833 172.405 221.764 172.182L218.322 170.374L219.194 168.713L228.871 173.795L228.04 175.376L227.11 174.888C227.302 175.339 227.378 175.809 227.337 176.296C227.291 176.792 227.14 177.284 226.884 177.771ZM221.134 174.513C220.812 175.125 220.753 175.732 220.956 176.336C221.154 176.949 221.586 177.43 222.25 177.779C222.915 178.128 223.556 178.21 224.173 178.026C224.785 177.85 225.252 177.456 225.573 176.845C225.782 176.446 225.878 176.038 225.859 175.622C225.85 175.21 225.725 174.822 225.486 174.459C225.247 174.096 224.906 173.798 224.463 173.566C224.02 173.333 223.581 173.221 223.147 173.231C222.712 173.24 222.318 173.355 221.965 173.576C221.62 173.802 221.343 174.115 221.134 174.513Z" fill="#8A8A8A"/>
<path d="M215.5 192.679L217.12 190.386L211.871 186.679L212.953 185.146L218.202 188.853L219.83 186.547L221.13 187.465L216.8 193.597L215.5 192.679Z" fill="#8A8A8A"/>
<path d="M212.098 199.471L210.824 200.849L208.432 198.638L205.691 201.604L208.083 203.815L206.809 205.193L200.922 199.752L202.195 198.373L204.522 200.523L207.263 197.558L204.937 195.408L206.21 194.029L212.098 199.471Z" fill="#8A8A8A"/>
<path d="M191.779 213.07C191.697 212.969 191.588 212.819 191.451 212.62L196.325 208.643C195.866 208.255 195.348 208.071 194.77 208.091C194.19 208.124 193.633 208.36 193.098 208.796C192.415 209.353 192.037 210.037 191.962 210.847L190.452 210.588C190.459 210.026 190.606 209.486 190.893 208.968C191.18 208.449 191.591 207.972 192.126 207.535C192.809 206.978 193.521 206.623 194.262 206.471C195.003 206.318 195.713 206.365 196.392 206.612C197.07 206.872 197.659 207.309 198.159 207.922C198.652 208.526 198.96 209.18 199.08 209.882C199.2 210.599 199.126 211.292 198.859 211.962C198.592 212.632 198.152 213.217 197.54 213.717C196.935 214.21 196.285 214.515 195.591 214.629C194.895 214.758 194.216 214.686 193.553 214.412C192.89 214.153 192.298 213.705 191.779 213.07ZM196.591 212.554C197.056 212.174 197.337 211.712 197.435 211.167C197.532 210.636 197.428 210.113 197.125 209.599L193.6 212.475C194.029 212.874 194.517 213.084 195.062 213.103C195.608 213.123 196.118 212.94 196.591 212.554ZM199.443 213.675C199.645 213.51 199.865 213.44 200.105 213.464C200.344 213.489 200.546 213.602 200.711 213.803C200.882 214.013 200.955 214.237 200.931 214.476C200.906 214.716 200.794 214.918 200.592 215.082C200.39 215.247 200.17 215.317 199.93 215.293C199.691 215.268 199.486 215.152 199.315 214.942C199.15 214.741 199.08 214.52 199.105 214.281C199.129 214.041 199.242 213.839 199.443 213.675ZM197.187 215.516C197.388 215.352 197.609 215.282 197.848 215.306C198.088 215.33 198.29 215.443 198.454 215.645C198.625 215.854 198.698 216.078 198.674 216.318C198.65 216.557 198.537 216.759 198.335 216.924C198.134 217.088 197.913 217.158 197.674 217.134C197.435 217.11 197.229 216.993 197.059 216.784C196.894 216.582 196.824 216.362 196.848 216.122C196.872 215.883 196.985 215.681 197.187 215.516Z" fill="#8A8A8A"/>
<path d="M183.721 223.474C183.053 223.878 182.369 224.092 181.671 224.117C180.964 224.147 180.3 223.988 179.679 223.638C179.058 223.289 178.537 222.767 178.118 222.074C177.698 221.38 177.475 220.673 177.448 219.952C177.426 219.24 177.593 218.577 177.948 217.965C178.294 217.358 178.801 216.852 179.469 216.448C180.394 215.888 181.312 215.753 182.225 216.043L180.212 212.717L181.817 211.745L187.476 221.096L185.947 222.021L185.403 221.122C185.335 221.608 185.157 222.049 184.87 222.445C184.575 222.846 184.191 223.189 183.721 223.474ZM180.48 217.713C179.889 218.071 179.525 218.561 179.386 219.182C179.239 219.81 179.36 220.444 179.749 221.086C180.138 221.729 180.644 222.13 181.267 222.291C181.883 222.457 182.486 222.361 183.076 222.003C183.462 221.77 183.754 221.47 183.954 221.104C184.158 220.746 184.252 220.35 184.235 219.916C184.218 219.482 184.08 219.051 183.821 218.622C183.561 218.194 183.244 217.872 182.867 217.655C182.49 217.439 182.093 217.334 181.676 217.341C181.264 217.356 180.866 217.48 180.48 217.713Z" fill="#8A8A8A"/>
<path d="M168.008 228.447C167.064 228.835 166.255 228.919 165.58 228.699C164.905 228.479 164.407 227.98 164.087 227.203C163.752 226.388 163.771 225.645 164.143 224.972C164.507 224.303 165.195 223.766 166.207 223.36L169.573 221.991L172.624 229.405L170.888 230.119L169.888 227.689L168.008 228.447ZM165.14 232.484L163.405 233.198L160.354 225.784L162.09 225.07L165.14 232.484ZM166.886 224.574C166.373 224.774 166.028 225.041 165.851 225.373C165.674 225.706 165.673 226.085 165.848 226.511C166.019 226.927 166.275 227.179 166.614 227.267C166.953 227.355 167.388 227.295 167.92 227.087L169.397 226.495L168.363 223.982L166.886 224.574Z" fill="#8A8A8A"/>
<defs>
<clipPath id="clip0_926_13193">
<rect width="110.722" height="51.8623" fill="white" transform="translate(68 94)"/>
</clipPath>
</defs>
</svg>
