<svg width="82" height="116" viewBox="0 0 82 116" fill="none" xmlns="http://www.w3.org/2000/svg">
<path d="M23.9737 99.0128H57.8762L81.8483 74.9877L73.3723 66.4942L57.8749 82.0237H23.9728L8.47651 66.4942L0 74.9877L23.9737 99.0128ZM16.953 57.9991L23.9728 65.0369H57.8749L64.8955 58L57.8749 50.9641H23.9728L16.953 57.9991ZM73.3723 66.4942L81.8488 57.9991L73.3713 49.5065L64.8955 58L73.3723 66.4942ZM8.47651 66.4942L16.953 57.9991L8.47558 49.5065L0 58L8.47651 66.4942ZM0 41.0128L8.47558 49.5065L23.9728 33.9759H57.8749L73.3727 49.5065L81.8488 41.0128L57.8762 16.9879H23.9737L0 41.0128ZM23.9737 0H57.8762L81.8488 24.0251V91.9745L57.8762 116H23.9737L0 91.9745V24.0251L23.9737 0Z" fill="black"/>
</svg>
