<svg width="30" height="30" viewBox="0 0 30 30" fill="none" xmlns="http://www.w3.org/2000/svg">
<circle cx="15" cy="15" r="15" fill="#FFCD00"/>
<path d="M16.4099 15.0002L20.7099 10.7102C20.8982 10.5219 21.004 10.2665 21.004 10.0002C21.004 9.73388 20.8982 9.47849 20.7099 9.29019C20.5216 9.10188 20.2662 8.99609 19.9999 8.99609C19.7336 8.99609 19.4782 9.10188 19.2899 9.29019L14.9999 13.5902L10.7099 9.29019C10.5216 9.10188 10.2662 8.99609 9.99994 8.99609C9.73364 8.99609 9.47824 9.10188 9.28994 9.29019C9.10164 9.47849 8.99585 9.73388 8.99585 10.0002C8.99585 10.2665 9.10164 10.5219 9.28994 10.7102L13.5899 15.0002L9.28994 19.2902C9.19621 19.3831 9.12182 19.4937 9.07105 19.6156C9.02028 19.7375 8.99414 19.8682 8.99414 20.0002C8.99414 20.1322 9.02028 20.2629 9.07105 20.3848C9.12182 20.5066 9.19621 20.6172 9.28994 20.7102C9.3829 20.8039 9.4935 20.8783 9.61536 20.9291C9.73722 20.9798 9.86793 21.006 9.99994 21.006C10.132 21.006 10.2627 20.9798 10.3845 20.9291C10.5064 20.8783 10.617 20.8039 10.7099 20.7102L14.9999 16.4102L19.2899 20.7102C19.3829 20.8039 19.4935 20.8783 19.6154 20.9291C19.7372 20.9798 19.8679 21.006 19.9999 21.006C20.132 21.006 20.2627 20.9798 20.3845 20.9291C20.5064 20.8783 20.617 20.8039 20.7099 20.7102C20.8037 20.6172 20.8781 20.5066 20.9288 20.3848C20.9796 20.2629 21.0057 20.1322 21.0057 20.0002C21.0057 19.8682 20.9796 19.7375 20.9288 19.6156C20.8781 19.4937 20.8037 19.3831 20.7099 19.2902L16.4099 15.0002Z" fill="black"/>
</svg>
