<svg width="180" height="73" viewBox="0 0 180 73" fill="none" xmlns="http://www.w3.org/2000/svg">
<g clip-path="url(#clip0_1252_7072)">
<path d="M69.7452 22.1177C67.9925 22.1177 67.1038 21.2524 67.1038 19.7509V13.9482C67.1038 12.4465 67.9925 11.5812 69.7452 11.5812C71.4474 11.5812 72.361 12.3701 72.361 13.7959H76.7553C76.7553 11.8354 76.1201 10.3087 74.8253 9.21485C73.5546 8.12001 71.9038 7.56026 69.8472 7.56026C65.3007 7.56026 62.7344 9.82494 62.7344 13.8717V19.9543C62.7344 23.7978 65.2238 26.139 69.313 26.139C71.0405 26.139 72.7421 25.4255 73.5796 24.3316L74.4431 25.7568H76.7552V15.8565H69.72V19.4706H72.5137V20.7688C71.7254 21.6599 70.7866 22.1178 69.7451 22.1178L69.7452 22.1177ZM15.0883 62.3098H36.4256L51.5129 47.1905L46.1783 41.8455L36.4247 51.6183H15.0878L5.33486 41.8455L0 47.1905L15.0883 62.3098ZM10.6697 36.4994L15.0878 40.9284H36.4247L40.8433 36.5L36.4247 32.0722H15.0878L10.6697 36.4994ZM46.1783 41.8456L51.5132 36.4994L46.1778 31.155L40.8433 36.5L46.1783 41.8456ZM5.33486 41.8456L10.6697 36.4994L5.33428 31.155L0 36.5L5.33486 41.8456ZM0 25.8098L5.33428 31.155L15.0878 21.3814H36.4247L46.1786 31.155L51.5132 25.8098L36.4256 10.6907H15.0883L0 25.8098H0ZM15.0883 0H36.4256L51.5132 15.1192V57.8805L36.4256 73.0002H15.0883L0 57.8805V15.1192L15.0883 0ZM175.25 68.8384V54.841H180V51.0227H166.107V54.841H170.882V68.8384H175.25H175.25ZM154.966 68.8384V59.1928L160.807 68.8384H164.795V51.0227H160.553V60.6683L154.738 51.0227H150.725V68.8384H154.966ZM149.11 68.8384V65.0211H141.541V61.7118H147.892V58.0984H141.541V54.841H149.059V51.0227H137.174V68.8384H149.111H149.11ZM126.217 68.8384V61.8392H127.868L131.83 68.8384H135.969V67.4133L131.373 59.6761L135.589 52.474V51.0227H131.729L127.792 58.0213H126.217V51.0227H121.849V68.8384H126.217ZM110.075 68.8384V61.8392H115.408V68.8384H119.777V51.0227H115.408V58.0213H110.075V51.0227H105.707V68.8384H110.075ZM97.5771 69.22C102.174 69.22 104.561 67.0055 104.561 63.5699C104.561 62.0683 104.155 60.999 103.241 60.2616C102.351 59.4722 101.463 59.0398 99.8624 58.5052L97.0428 57.5383C95.6971 57.055 95.2399 56.8261 95.2399 56.0367C95.2399 55.1463 96.0277 54.6624 97.3734 54.6624C98.8972 54.6624 99.9898 55.4004 99.9898 56.7496H104.383C104.383 54.7648 103.748 53.263 102.503 52.2195C101.259 51.1761 99.634 50.6414 97.577 50.6414C95.4685 50.6414 93.8177 51.1502 92.5984 52.1686C91.4048 53.1861 90.7953 54.5613 90.7953 56.2659C90.7953 58.6327 92.0905 60.2361 94.6559 61.1266L97.551 62.0941C99.5069 62.7299 100.167 63.0605 100.167 63.7992C100.167 64.7412 99.4052 65.1991 97.9062 65.1991C97.0683 65.1991 96.3063 65.0461 95.6713 64.7412C95.0369 64.41 94.7063 63.8501 94.7063 63.0607H90.3382C90.3382 65.0211 91.024 66.5479 92.3704 67.617C93.7419 68.6853 95.4685 69.2202 97.577 69.2202L97.5771 69.22ZM90.4294 68.8384V67.4133L84.5116 51.0227H80.2194L74.3267 67.4133V68.8384H78.1872L79.4574 64.9948H85.0958L86.3402 68.8384H90.4294ZM83.8765 61.3302H80.6764L82.3016 56.4695L83.8765 61.3302ZM71.9415 68.8384V54.841H76.6913V51.0227H62.7979V54.841H67.5728V68.8384H71.9414H71.9415ZM112.848 33.1015H115.057C116.886 33.1015 117.902 34.1189 117.902 35.2646V41.1181C117.902 42.2371 116.886 43.2816 115.057 43.2816H112.848V33.1015ZM115.057 47.0985C119.604 47.0985 122.27 44.9097 122.27 41.0159V35.3671C122.27 31.4979 119.553 29.2834 115.057 29.2834H108.48V47.0986H115.057V47.0985ZM107.935 47.0985V45.6739L102.018 29.2832H97.7267L91.8332 45.6739V47.0985H95.6939L96.9643 43.2555H102.602L103.846 47.0985H107.935ZM101.383 39.5913H98.1826L99.8083 34.7294L101.383 39.5913ZM87.5513 41.1941C87.5513 42.3901 86.6113 43.4594 84.7063 43.4594C82.8018 43.4594 81.8617 42.3899 81.8617 41.1941V35.1624C81.8617 34.0172 82.8018 32.9229 84.7063 32.9229C86.6113 32.9229 87.5513 34.0172 87.5513 35.1624V41.1941ZM84.7063 47.4803C86.9163 47.4803 88.6684 46.9206 89.964 45.7747C91.2591 44.6301 91.9193 43.052 91.9193 41.0413V35.3913C91.9193 33.3556 91.2591 31.7773 89.964 30.6323C88.6682 29.4871 86.9161 28.9018 84.7063 28.9018C82.4969 28.9018 80.7192 29.4871 79.424 30.6323C78.1283 31.7774 77.4933 33.3557 77.4933 35.3913V41.0413C77.4933 43.052 78.154 44.6301 79.449 45.7747C80.7442 46.9206 82.4971 47.4803 84.7063 47.4803ZM67.0654 47.0983V40.5833H68.8942L72.5514 47.0983H76.7933V45.6737L73.5163 40.0996C75.3194 39.0052 76.2343 37.3001 76.2343 34.9333C76.2343 31.3455 74.2534 29.2832 70.494 29.2832H62.697V47.0985H67.0654V47.0983ZM67.0654 33.1014H69.7578C71.1549 33.1014 71.8148 33.5839 71.8148 35.0097C71.8148 36.46 71.1549 36.9688 69.7578 36.9688H67.0654V33.1014ZM132.46 11.7593H134.67C136.498 11.7593 137.515 12.7772 137.515 13.923V19.7758C137.515 20.8953 136.498 21.9395 134.67 21.9395H132.46V11.7593ZM134.67 25.7566C139.216 25.7566 141.883 23.5678 141.883 19.6743V14.0242C141.883 10.1556 139.165 7.9417 134.67 7.9417H128.092V25.7568H134.67V25.7566ZM115.535 25.7566V16.1106L121.377 25.7566H125.364V7.94155H121.122V17.5876L115.307 7.94155H111.294V25.7566H115.535ZM110.186 25.7566V24.3314L104.268 7.94155H99.9767L94.0839 24.3314V25.7566H97.9446L99.2145 21.9137H104.853L106.097 25.7566H110.186ZM103.633 18.2491H100.433L102.059 13.3877L103.633 18.2491ZM83.2977 25.7566V19.2417H85.1264L88.7836 25.7566H93.0249V24.3314L89.7485 18.758C91.5521 17.6636 92.4665 15.9585 92.4665 13.5917C92.4665 10.0028 90.4856 7.9417 86.7265 7.9417H78.9292V25.7568H83.2977V25.7566ZM83.2977 11.7593H85.9899C87.387 11.7593 88.0472 12.2424 88.0472 13.6682C88.0472 15.1185 87.387 15.6273 85.9899 15.6273H83.2977V11.7594V11.7593Z" fill="white"/>
</g>
<defs>
<clipPath id="clip0_1252_7072">
<rect width="180" height="73" fill="white"/>
</clipPath>
</defs>
</svg>
