<svg width="661" height="83" viewBox="0 0 661 83" fill="none" xmlns="http://www.w3.org/2000/svg">
<path d="M126.848 77.3813L177.315 27.9195C183.562 21.7613 183.562 11.7769 177.315 5.61866C171.068 -0.539545 160.94 -0.539532 154.693 5.61868L115.636 44.1847L75.954 5.61866C69.7071 -0.539545 59.579 -0.539532 53.3321 5.61868L4.68513 53.5754C-1.56171 59.7336 -1.56171 69.718 4.68513 75.8762C10.932 82.0344 21.0601 82.0344 27.307 75.8762L64.9642 38.7533L104.226 77.3813C110.473 83.5396 120.601 83.5396 126.848 77.3813Z" fill="#F9C200"/>
<path d="M271.144 80.285V2.05372H252.835V50.4249L213.354 2.05372H197.677V80.285H215.872V31.9139L255.467 80.285H271.144Z" fill="#1B1A1E"/>
<path d="M418.956 80.285H435.32L468.621 2.05372H448.595L427.081 54.1712L405.453 2.05372H385.655L418.956 80.285Z" fill="#1B1A1E"/>
<path d="M476.9 80.285H457.904L492.692 2.05372H509.171L543.96 80.285H524.963L511.117 48.5518L500.932 25.0824L490.633 48.5518L484.11 63.7573L476.9 80.285Z" fill="#1B1A1E"/>
<path d="M586.109 81.6072C603.045 81.6072 615.176 71.6906 615.176 57.4767C615.29 45.6869 607.623 38.1943 595.836 34.1175L590.114 32.1342C581.417 29.1592 577.526 27.3962 577.526 23.099C577.526 19.0222 582.447 17.149 587.368 17.149C592.517 17.149 597.667 19.2425 601.443 23.6499L613.345 11.5296C605.677 3.59626 597.095 0.731445 587.139 0.731445C571.004 0.731445 559.102 9.65643 559.102 24.862C559.102 35.5499 566.312 43.1527 579.586 47.4499L585.308 49.323C593.547 51.9675 596.637 54.7221 596.637 58.6887C596.637 62.5452 592.861 65.1897 586.796 65.1897C580.845 65.1897 573.979 61.8841 569.974 56.2647L556.012 67.6137C562.421 76.4285 573.178 81.6072 586.109 81.6072Z" fill="#1B1A1E"/>
<path d="M310.396 41.757C310.396 54.4283 320.809 65.2264 334.084 65.2264C336.55 65.2264 338.92 64.8471 341.143 64.1473L354.541 77.0471C348.48 80.3237 341.5 82.1949 334.084 82.1949C310.854 82.1949 292.086 64.0144 292.086 41.757C292.086 19.4996 310.854 1.31911 334.084 1.31911C357.2 1.31911 376.082 19.4996 376.082 41.757C376.082 50.2468 373.335 58.1435 368.653 64.6643L355.338 51.8441C356.827 48.7652 357.658 45.3358 357.658 41.757C357.658 29.0857 347.244 18.2876 334.084 18.2876C320.809 18.2876 310.396 29.0857 310.396 41.757Z" fill="#1B1A1E"/>
<circle cx="645.726" cy="66.9209" r="15.2744" fill="#F9C200"/>
</svg>
