<svg width="156" height="155" viewBox="0 0 156 155" fill="none" xmlns="http://www.w3.org/2000/svg">
<path d="M90.8694 117.899H65.6948C65.04 117.899 64.5106 117.369 64.5106 116.715C64.5106 107.483 60.1801 98.5336 52.6324 92.1604C43.6502 84.5834 38.5 73.5009 38.5 61.7564C38.5 39.8345 56.3466 22.0002 78.2826 22.0002C100.219 22.0002 118.065 39.8339 118.065 61.7564C118.065 73.5007 112.915 84.5836 103.933 92.1604C96.3842 98.5327 92.0546 107.481 92.0546 116.715C92.0537 117.369 91.5244 117.899 90.8695 117.899H90.8694ZM66.8806 116.715H66.9038H66.8806ZM66.8583 115.53H89.7075C90.0607 106.022 94.6438 96.9017 102.407 90.3506C110.853 83.2221 115.697 72.7987 115.697 61.755C115.696 41.1403 98.9123 24.3682 78.2835 24.3682C57.6535 24.3682 40.8703 41.1405 40.8703 61.755C40.8703 72.7979 45.7139 83.2212 54.1605 90.3506C61.9224 96.9006 66.5054 106.021 66.8587 115.53H66.8583Z" fill="#FFCC2A"/>
<path d="M90.8695 117.899H65.695C65.0401 117.899 64.5107 117.369 64.5107 116.715C64.5107 116.06 65.041 115.531 65.695 115.531H90.8695C91.5244 115.531 92.0538 116.061 92.0538 116.715C92.0538 117.37 91.5244 117.899 90.8695 117.899Z" fill="#FFCC2A"/>
<path d="M86.4183 133.356H70.152C70.152 133.356 70.152 132.826 70.152 132.172C70.152 129.717 68.154 127.718 65.6979 127.718C65.043 127.718 64.5137 127.718 64.5137 127.718V116.717C64.5137 116.062 65.0439 115.533 65.6979 115.533H90.8725C91.5273 115.533 92.0567 116.063 92.0567 116.717V127.718C92.0567 127.718 91.5264 127.718 90.8725 127.718C88.4164 127.718 86.4183 129.717 86.4183 132.172C86.4175 132.826 86.4183 133.356 86.4183 133.356ZM72.4173 130.987H84.1512C84.6462 128.17 86.8719 125.945 89.6864 125.45V117.9H66.8812V125.45C69.6966 125.945 71.9223 128.17 72.4173 130.987Z" fill="#FFCC2A"/>
</svg>
